<svg width="157" height="41" viewBox="0 0 157 41" fill="none" xmlns="http://www.w3.org/2000/svg">
<path d="M153.056 6.95378L155.171 6.6945C155.335 6.67473 155.501 6.70223 155.648 6.77353C155.795 6.84483 155.918 6.95674 155.999 7.09516C156.081 7.23358 156.118 7.39231 156.107 7.55135C156.096 7.71039 156.036 7.86262 155.935 7.98887L151.462 13.6541L145.672 9.2468C145.585 9.18209 145.512 9.10142 145.458 9.00943C145.403 8.91745 145.368 8.81595 145.355 8.71078C145.341 8.60562 145.349 8.49886 145.378 8.39664C145.407 8.29443 145.456 8.19877 145.524 8.11518C145.591 8.03142 145.674 7.96127 145.769 7.90875C145.864 7.85622 145.969 7.82234 146.077 7.80906L148.135 7.55686C147.791 5.36294 147.065 3.00851 144 1.55868L144.827 1.45735C148.657 0.987919 152.173 3.40291 153.056 6.95378Z" fill="#292929"/>
<path d="M7.722 34L4.95 29.104H3.762V34H1.242V21.436H5.958C6.93 21.436 7.758 21.61 8.442 21.958C9.126 22.294 9.636 22.756 9.972 23.344C10.32 23.92 10.494 24.568 10.494 25.288C10.494 26.116 10.254 26.866 9.774 27.538C9.294 28.198 8.58 28.654 7.632 28.906L10.638 34H7.722ZM3.762 27.214H5.868C6.552 27.214 7.062 27.052 7.398 26.728C7.734 26.392 7.902 25.93 7.902 25.342C7.902 24.766 7.734 24.322 7.398 24.01C7.062 23.686 6.552 23.524 5.868 23.524H3.762V27.214ZM17.2013 34.162C16.2413 34.162 15.3773 33.952 14.6093 33.532C13.8413 33.1 13.2353 32.494 12.7913 31.714C12.3593 30.934 12.1433 30.034 12.1433 29.014C12.1433 27.994 12.3653 27.094 12.8093 26.314C13.2653 25.534 13.8833 24.934 14.6633 24.514C15.4433 24.082 16.3133 23.866 17.2733 23.866C18.2333 23.866 19.1033 24.082 19.8833 24.514C20.6633 24.934 21.2753 25.534 21.7193 26.314C22.1753 27.094 22.4033 27.994 22.4033 29.014C22.4033 30.034 22.1693 30.934 21.7012 31.714C21.2453 32.494 20.6213 33.1 19.8293 33.532C19.0493 33.952 18.1733 34.162 17.2013 34.162ZM17.2013 31.966C17.6573 31.966 18.0833 31.858 18.4793 31.642C18.8873 31.414 19.2113 31.078 19.4513 30.634C19.6913 30.19 19.8113 29.65 19.8113 29.014C19.8113 28.066 19.5593 27.34 19.0553 26.836C18.5633 26.32 17.9573 26.062 17.2373 26.062C16.5173 26.062 15.9113 26.32 15.4193 26.836C14.9393 27.34 14.6993 28.066 14.6993 29.014C14.6993 29.962 14.9333 30.694 15.4013 31.21C15.8813 31.714 16.4813 31.966 17.2013 31.966ZM26.7718 20.68V34H24.2518V20.68H26.7718ZM38.5315 28.798C38.5315 29.158 38.5075 29.482 38.4595 29.77H31.1695C31.2295 30.49 31.4815 31.054 31.9255 31.462C32.3695 31.87 32.9155 32.074 33.5635 32.074C34.4995 32.074 35.1655 31.672 35.5615 30.868H38.2795C37.9915 31.828 37.4395 32.62 36.6235 33.244C35.8075 33.856 34.8055 34.162 33.6175 34.162C32.6575 34.162 31.7935 33.952 31.0255 33.532C30.2695 33.1 29.6755 32.494 29.2435 31.714C28.8235 30.934 28.6135 30.034 28.6135 29.014C28.6135 27.982 28.8235 27.076 29.2435 26.296C29.6635 25.516 30.2515 24.916 31.0075 24.496C31.7635 24.076 32.6335 23.866 33.6175 23.866C34.5655 23.866 35.4115 24.07 36.1555 24.478C36.9115 24.886 37.4935 25.468 37.9015 26.224C38.3215 26.968 38.5315 27.826 38.5315 28.798ZM35.9215 28.078C35.9095 27.43 35.6755 26.914 35.2195 26.53C34.7635 26.134 34.2055 25.936 33.5455 25.936C32.9215 25.936 32.3935 26.128 31.9615 26.512C31.5415 26.884 31.2835 27.406 31.1875 28.078H35.9215ZM47.18 25.468C47.504 25.012 47.948 24.634 48.512 24.334C49.088 24.022 49.742 23.866 50.474 23.866C51.326 23.866 52.094 24.076 52.778 24.496C53.474 24.916 54.02 25.516 54.416 26.296C54.824 27.064 55.028 27.958 55.028 28.978C55.028 29.998 54.824 30.904 54.416 31.696C54.02 32.476 53.474 33.082 52.778 33.514C52.094 33.946 51.326 34.162 50.474 34.162C49.742 34.162 49.094 34.012 48.53 33.712C47.978 33.412 47.528 33.034 47.18 32.578V38.752H44.66V24.028H47.18V25.468ZM52.454 28.978C52.454 28.378 52.328 27.862 52.076 27.43C51.836 26.986 51.512 26.65 51.104 26.422C50.708 26.194 50.276 26.08 49.808 26.08C49.352 26.08 48.92 26.2 48.512 26.44C48.116 26.668 47.792 27.004 47.54 27.448C47.3 27.892 47.18 28.414 47.18 29.014C47.18 29.614 47.3 30.136 47.54 30.58C47.792 31.024 48.116 31.366 48.512 31.606C48.92 31.834 49.352 31.948 49.808 31.948C50.276 31.948 50.708 31.828 51.104 31.588C51.512 31.348 51.836 31.006 52.076 30.562C52.328 30.118 52.454 29.59 52.454 28.978ZM56.2112 28.978C56.2112 27.97 56.4092 27.076 56.8052 26.296C57.2132 25.516 57.7592 24.916 58.4432 24.496C59.1392 24.076 59.9132 23.866 60.7652 23.866C61.5092 23.866 62.1572 24.016 62.7092 24.316C63.2732 24.616 63.7232 24.994 64.0592 25.45V24.028H66.5972V34H64.0592V32.542C63.7352 33.01 63.2852 33.4 62.7092 33.712C62.1452 34.012 61.4912 34.162 60.7472 34.162C59.9072 34.162 59.1392 33.946 58.4432 33.514C57.7592 33.082 57.2132 32.476 56.8052 31.696C56.4092 30.904 56.2112 29.998 56.2112 28.978ZM64.0592 29.014C64.0592 28.402 63.9392 27.88 63.6992 27.448C63.4592 27.004 63.1352 26.668 62.7272 26.44C62.3192 26.2 61.8812 26.08 61.4132 26.08C60.9452 26.08 60.5132 26.194 60.1172 26.422C59.7212 26.65 59.3972 26.986 59.1452 27.43C58.9052 27.862 58.7852 28.378 58.7852 28.978C58.7852 29.578 58.9052 30.106 59.1452 30.562C59.3972 31.006 59.7212 31.348 60.1172 31.588C60.5252 31.828 60.9572 31.948 61.4132 31.948C61.8812 31.948 62.3192 31.834 62.7272 31.606C63.1352 31.366 63.4592 31.03 63.6992 30.598C63.9392 30.154 64.0592 29.626 64.0592 29.014ZM71.5784 25.576C71.9024 25.048 72.3224 24.634 72.8384 24.334C73.3664 24.034 73.9664 23.884 74.6384 23.884V26.53H73.9724C73.1804 26.53 72.5804 26.716 72.1724 27.088C71.7764 27.46 71.5784 28.108 71.5784 29.032V34H69.0584V24.028H71.5784V25.576ZM75.6877 28.978C75.6877 27.97 75.8857 27.076 76.2817 26.296C76.6898 25.516 77.2358 24.916 77.9198 24.496C78.6158 24.076 79.3898 23.866 80.2418 23.866C80.9858 23.866 81.6338 24.016 82.1858 24.316C82.7498 24.616 83.1998 24.994 83.5358 25.45V24.028H86.0738V34H83.5358V32.542C83.2118 33.01 82.7618 33.4 82.1858 33.712C81.6218 34.012 80.9678 34.162 80.2238 34.162C79.3838 34.162 78.6158 33.946 77.9198 33.514C77.2358 33.082 76.6898 32.476 76.2817 31.696C75.8857 30.904 75.6877 29.998 75.6877 28.978ZM83.5358 29.014C83.5358 28.402 83.4158 27.88 83.1758 27.448C82.9358 27.004 82.6118 26.668 82.2038 26.44C81.7958 26.2 81.3578 26.08 80.8898 26.08C80.4218 26.08 79.9898 26.194 79.5938 26.422C79.1978 26.65 78.8738 26.986 78.6218 27.43C78.3818 27.862 78.2618 28.378 78.2618 28.978C78.2618 29.578 78.3818 30.106 78.6218 30.562C78.8738 31.006 79.1978 31.348 79.5938 31.588C80.0018 31.828 80.4338 31.948 80.8898 31.948C81.3578 31.948 81.7958 31.834 82.2038 31.606C82.6118 31.366 82.9358 31.03 83.1758 30.598C83.4158 30.154 83.5358 29.626 83.5358 29.014ZM95.344 25.486C95.668 25.006 96.112 24.616 96.676 24.316C97.252 24.016 97.906 23.866 98.638 23.866C99.49 23.866 100.258 24.076 100.942 24.496C101.638 24.916 102.184 25.516 102.58 26.296C102.988 27.064 103.192 27.958 103.192 28.978C103.192 29.998 102.988 30.904 102.58 31.696C102.184 32.476 101.638 33.082 100.942 33.514C100.258 33.946 99.49 34.162 98.638 34.162C97.894 34.162 97.24 34.018 96.676 33.73C96.124 33.43 95.68 33.046 95.344 32.578V34H92.824V20.68H95.344V25.486ZM100.618 28.978C100.618 28.378 100.492 27.862 100.24 27.43C100 26.986 99.676 26.65 99.268 26.422C98.872 26.194 98.44 26.08 97.972 26.08C97.516 26.08 97.084 26.2 96.676 26.44C96.28 26.668 95.956 27.004 95.704 27.448C95.464 27.892 95.344 28.414 95.344 29.014C95.344 29.614 95.464 30.136 95.704 30.58C95.956 31.024 96.28 31.366 96.676 31.606C97.084 31.834 97.516 31.948 97.972 31.948C98.44 31.948 98.872 31.828 99.268 31.588C99.676 31.348 100 31.006 100.24 30.562C100.492 30.118 100.618 29.59 100.618 28.978ZM104.375 28.978C104.375 27.97 104.573 27.076 104.969 26.296C105.377 25.516 105.923 24.916 106.607 24.496C107.303 24.076 108.077 23.866 108.929 23.866C109.673 23.866 110.321 24.016 110.873 24.316C111.437 24.616 111.887 24.994 112.223 25.45V24.028H114.761V34H112.223V32.542C111.899 33.01 111.449 33.4 110.873 33.712C110.309 34.012 109.655 34.162 108.911 34.162C108.071 34.162 107.303 33.946 106.607 33.514C105.923 33.082 105.377 32.476 104.969 31.696C104.573 30.904 104.375 29.998 104.375 28.978ZM112.223 29.014C112.223 28.402 112.103 27.88 111.863 27.448C111.623 27.004 111.299 26.668 110.891 26.44C110.483 26.2 110.045 26.08 109.577 26.08C109.109 26.08 108.677 26.194 108.281 26.422C107.885 26.65 107.561 26.986 107.309 27.43C107.069 27.862 106.949 28.378 106.949 28.978C106.949 29.578 107.069 30.106 107.309 30.562C107.561 31.006 107.885 31.348 108.281 31.588C108.689 31.828 109.121 31.948 109.577 31.948C110.045 31.948 110.483 31.834 110.891 31.606C111.299 31.366 111.623 31.03 111.863 30.598C112.103 30.154 112.223 29.626 112.223 29.014ZM118.5 22.84C118.056 22.84 117.684 22.702 117.384 22.426C117.096 22.138 116.952 21.784 116.952 21.364C116.952 20.944 117.096 20.596 117.384 20.32C117.684 20.032 118.056 19.888 118.5 19.888C118.944 19.888 119.31 20.032 119.598 20.32C119.898 20.596 120.048 20.944 120.048 21.364C120.048 21.784 119.898 22.138 119.598 22.426C119.31 22.702 118.944 22.84 118.5 22.84ZM119.742 24.028V34H117.222V24.028H119.742ZM127.74 34L125.688 30.904L123.87 34H121.17L124.428 28.996L121.134 24.028H123.978L126.012 27.106L127.848 24.028H130.548L127.272 28.996L130.584 34H127.74ZM136.381 34.162C135.421 34.162 134.557 33.952 133.789 33.532C133.021 33.1 132.415 32.494 131.971 31.714C131.539 30.934 131.323 30.034 131.323 29.014C131.323 27.994 131.545 27.094 131.989 26.314C132.445 25.534 133.063 24.934 133.843 24.514C134.623 24.082 135.493 23.866 136.453 23.866C137.413 23.866 138.283 24.082 139.063 24.514C139.843 24.934 140.455 25.534 140.899 26.314C141.355 27.094 141.583 27.994 141.583 29.014C141.583 30.034 141.349 30.934 140.881 31.714C140.425 32.494 139.801 33.1 139.009 33.532C138.229 33.952 137.353 34.162 136.381 34.162ZM136.381 31.966C136.837 31.966 137.263 31.858 137.659 31.642C138.067 31.414 138.391 31.078 138.631 30.634C138.871 30.19 138.991 29.65 138.991 29.014C138.991 28.066 138.739 27.34 138.235 26.836C137.743 26.32 137.137 26.062 136.417 26.062C135.697 26.062 135.091 26.32 134.599 26.836C134.119 27.34 133.879 28.066 133.879 29.014C133.879 29.962 134.113 30.694 134.581 31.21C135.061 31.714 135.661 31.966 136.381 31.966Z" fill="#292929"/>
</svg>
