<svg width="33" height="33" viewBox="0 0 33 33" fill="none" xmlns="http://www.w3.org/2000/svg">
<g clip-path="url(#clip0_20_1767)">
<path d="M25.3191 6.71248C25.6392 5.78514 25.7559 4.79972 25.6611 3.82327C25.5663 2.84682 25.2624 1.90222 24.7699 1.05374C24.7269 0.97927 24.6651 0.917415 24.5906 0.874381C24.5162 0.831348 24.4317 0.808648 24.3458 0.80856C23.2378 0.805414 22.1456 1.07155 21.1633 1.58407C20.181 2.09659 19.3379 2.84014 18.7066 3.75071H15.2741C14.6428 2.84014 13.7998 2.09659 12.8174 1.58407C11.8351 1.07155 10.743 0.805414 9.63498 0.80856C9.54899 0.808648 9.46453 0.831348 9.39009 0.874381C9.31564 0.917415 9.25381 0.97927 9.21082 1.05374C8.71836 1.90222 8.4144 2.84682 8.31963 3.82327C8.22486 4.79972 8.3415 5.78514 8.66162 6.71248C8.02626 7.73831 7.6845 8.91878 7.67354 10.1254V11.1061C7.67549 12.7962 8.34773 14.4165 9.54279 15.6115C10.7379 16.8066 12.3581 17.4788 14.0482 17.4808H14.2211C13.7083 17.894 13.2945 18.4168 13.0101 19.0107C12.7256 19.6047 12.5777 20.2547 12.5771 20.9133V22.3844H9.14462C8.23426 22.3844 7.36119 22.0227 6.71747 21.379C6.07375 20.7353 5.71211 19.8622 5.71211 18.9518C5.71211 17.7814 5.24714 16.6589 4.4195 15.8312C3.59186 15.0036 2.46934 14.5386 1.29888 14.5386C1.16883 14.5386 1.0441 14.5903 0.95214 14.6822C0.86018 14.7742 0.808517 14.8989 0.808517 15.029C0.808517 15.159 0.86018 15.2837 0.95214 15.3757C1.0441 15.4677 1.16883 15.5193 1.29888 15.5193C2.20924 15.5193 3.08231 15.881 3.72603 16.5247C4.36975 17.1684 4.73139 18.0415 4.73139 18.9518C4.73139 20.1223 5.19635 21.2448 6.024 22.0725C6.85164 22.9001 7.97416 23.3651 9.14462 23.3651H12.5771V25.8169C12.5771 25.9469 12.6288 26.0716 12.7208 26.1636C12.8127 26.2556 12.9374 26.3072 13.0675 26.3072C13.1975 26.3072 13.3223 26.2556 13.4142 26.1636C13.5062 26.0716 13.5579 25.9469 13.5579 25.8169V20.9133C13.5579 20.0029 13.9195 19.1298 14.5632 18.4861C15.2069 17.8424 16.08 17.4808 16.9904 17.4808C17.9007 17.4808 18.7738 17.8424 19.4175 18.4861C20.0612 19.1298 20.4229 20.0029 20.4229 20.9133V25.8169C20.4229 25.9469 20.4745 26.0716 20.5665 26.1636C20.6585 26.2556 20.7832 26.3072 20.9132 26.3072C21.0433 26.3072 21.168 26.2556 21.26 26.1636C21.3519 26.0716 21.4036 25.9469 21.4036 25.8169V20.9133C21.403 20.2547 21.2551 19.6047 20.9707 19.0107C20.6862 18.4168 20.2724 17.894 19.7597 17.4808H19.9325C21.6226 17.4788 23.2429 16.8066 24.4379 15.6115C25.633 14.4165 26.3052 12.7962 26.3072 11.1061V10.1254C26.2962 8.91878 25.9545 7.73831 25.3191 6.71248ZM25.3265 11.1061C25.3248 12.5362 24.756 13.9072 23.7448 14.9184C22.7336 15.9296 21.3626 16.4984 19.9325 16.5001H14.0482C12.6181 16.4984 11.2471 15.9296 10.2359 14.9184C9.22469 13.9072 8.65588 12.5362 8.65426 11.1061V10.1254C8.66697 9.03819 8.99534 7.97812 9.59943 7.07412C9.64927 7.0076 9.68138 6.92949 9.69275 6.84715C9.70411 6.7648 9.69436 6.68092 9.6644 6.60338C9.36467 5.82959 9.23262 5.00099 9.277 4.17236C9.32138 3.34374 9.54117 2.53398 9.92184 1.79663C10.861 1.84022 11.7758 2.10913 12.5892 2.58067C13.4025 3.05221 14.0905 3.71252 14.595 4.50587C14.6394 4.5751 14.7005 4.63204 14.7727 4.67146C14.8449 4.71088 14.9258 4.7315 15.0081 4.73143H18.9726C19.0549 4.7315 19.1358 4.71088 19.208 4.67146C19.2802 4.63204 19.3414 4.5751 19.3858 4.50587C19.8902 3.71252 20.5782 3.05221 21.3915 2.58067C22.2049 2.10913 23.1198 1.84022 24.0589 1.79663C24.4396 2.53398 24.6594 3.34374 24.7037 4.17236C24.7481 5.00099 24.6161 5.82959 24.3163 6.60338C24.2866 6.68075 24.277 6.7644 24.2883 6.84651C24.2997 6.92862 24.3317 7.00651 24.3813 7.0729C24.985 7.97752 25.3134 9.03787 25.3265 10.1254V11.1061Z" fill="#5138E9"/>
</g>
<defs>
<clipPath id="clip0_20_1767">
<rect width="31.383" height="31.383" fill="white" transform="translate(0.808517 0.808533)"/>
</clipPath>
</defs>
</svg>
