<svg width="32" height="33" viewBox="0 0 32 33" fill="none" xmlns="http://www.w3.org/2000/svg">
<path d="M16.2234 11.1061C15.1566 11.1061 14.1137 11.4224 13.2267 12.0151C12.3397 12.6078 11.6483 13.4502 11.2401 14.4358C10.8318 15.4214 10.725 16.506 10.9331 17.5523C11.1412 18.5986 11.655 19.5597 12.4093 20.3141C13.1637 21.0685 14.1248 21.5822 15.1711 21.7903C16.2174 21.9984 17.302 21.8916 18.2876 21.4834C19.2732 21.0751 20.1156 20.3838 20.7083 19.4967C21.301 18.6097 21.6174 17.5668 21.6174 16.5C21.6157 15.0699 21.0469 13.6989 20.0357 12.6877C19.0245 11.6765 17.6535 11.1077 16.2234 11.1061ZM16.2234 20.9132C15.3506 20.9132 14.4973 20.6544 13.7716 20.1695C13.0458 19.6845 12.4802 18.9953 12.1461 18.1889C11.8121 17.3825 11.7247 16.4951 11.895 15.639C12.0653 14.7829 12.4856 13.9966 13.1028 13.3794C13.72 12.7622 14.5064 12.3419 15.3624 12.1716C16.2185 12.0013 17.1059 12.0887 17.9123 12.4227C18.7187 12.7567 19.408 13.3224 19.8929 14.0481C20.3778 14.7739 20.6367 15.6271 20.6367 16.5C20.6367 17.6705 20.1717 18.793 19.344 19.6206C18.5164 20.4483 17.3939 20.9132 16.2234 20.9132ZM22.1077 4.24103H10.3391C8.64904 4.24297 7.02875 4.91521 5.83369 6.11027C4.63863 7.30534 3.96639 8.92563 3.96445 10.6157V22.3843C3.96639 24.0744 4.63863 25.6947 5.83369 26.8897C7.02875 28.0848 8.64904 28.757 10.3391 28.759H22.1077C23.7978 28.757 25.4181 28.0848 26.6132 26.8897C27.8082 25.6947 28.4805 24.0744 28.4824 22.3843V10.6157C28.4805 8.92563 27.8082 7.30534 26.6132 6.11027C25.4181 4.91521 23.7978 4.24297 22.1077 4.24103ZM27.5017 22.3843C27.5001 23.8144 26.9312 25.1854 25.92 26.1966C24.9088 27.2078 23.5378 27.7766 22.1077 27.7783H10.3391C8.90905 27.7766 7.53802 27.2078 6.52681 26.1966C5.5156 25.1854 4.94679 23.8144 4.94517 22.3843V10.6157C4.94679 9.18563 5.5156 7.8146 6.52681 6.80339C7.53802 5.79218 8.90905 5.22337 10.3391 5.22175H22.1077C23.5378 5.22337 24.9088 5.79218 25.92 6.80339C26.9312 7.8146 27.5001 9.18563 27.5017 10.6157V22.3843ZM23.5788 10.1253C23.5788 10.3193 23.5213 10.5089 23.4135 10.6702C23.3058 10.8315 23.1526 10.9572 22.9734 11.0314C22.7942 11.1056 22.597 11.1251 22.4068 11.0872C22.2165 11.0494 22.0418 10.956 21.9046 10.8188C21.7675 10.6817 21.6741 10.5069 21.6362 10.3167C21.5984 10.1264 21.6178 9.92923 21.692 9.75003C21.7663 9.57083 21.892 9.41766 22.0532 9.3099C22.2145 9.20214 22.4041 9.14462 22.5981 9.14462C22.8582 9.14462 23.1076 9.24794 23.2916 9.43186C23.4755 9.61578 23.5788 9.86523 23.5788 10.1253Z" fill="#5138E9"/>
</svg>
