<svg width="39" height="38" viewBox="0 0 39 38" fill="none" xmlns="http://www.w3.org/2000/svg">
<path d="M13.1753 11.1853C14.1112 11.1853 14.87 10.4266 14.87 9.49064C14.87 8.55469 14.1112 7.79596 13.1753 7.79596C12.2393 7.79596 11.4806 8.55469 11.4806 9.49064C11.4806 10.4266 12.2393 11.1853 13.1753 11.1853Z" fill="#5138E9"/>
<path d="M12.675 13.3254V25.0783M26.3815 25.0783V17.5386C26.3794 16.3282 25.8977 15.1679 25.0418 14.3121C24.1859 13.4562 23.0257 12.9744 21.8153 12.9724C20.6035 12.9723 19.4413 13.4532 18.5837 14.3093C17.7261 15.1654 17.2433 16.3268 17.2412 17.5386M17.2412 17.5386V25.0783M17.2412 17.5386V13.3254" stroke="#5138E9" stroke-linecap="round" stroke-linejoin="round"/>
</svg>
