<svg width="51" height="51" viewBox="0 0 51 51" fill="none" xmlns="http://www.w3.org/2000/svg">
<path d="M6.89361 11.0213V9.98938C6.61993 9.98938 6.35746 10.0981 6.16394 10.2916C5.97041 10.4851 5.86169 10.7476 5.86169 11.0213H6.89361ZM44.0425 11.0213H45.0745C45.0745 10.7476 44.9657 10.4851 44.7722 10.2916C44.5787 10.0981 44.3162 9.98938 44.0425 9.98938V11.0213ZM6.89361 12.0532H44.0425V9.98938H6.89361V12.0532ZM43.0106 11.0213V35.7873H45.0745V11.0213H43.0106ZM39.9149 38.883H11.0213V40.9468H39.9149V38.883ZM7.92552 35.7873V11.0213H5.86169V35.7873H7.92552ZM11.0213 38.883C10.2002 38.883 9.41281 38.5568 8.83225 37.9763C8.25168 37.3957 7.92552 36.6083 7.92552 35.7873H5.86169C5.86169 37.1557 6.40529 38.468 7.3729 39.4356C8.34051 40.4032 9.65286 40.9468 11.0213 40.9468V38.883ZM43.0106 35.7873C43.0106 36.6083 42.6845 37.3957 42.1039 37.9763C41.5233 38.5568 40.7359 38.883 39.9149 38.883V40.9468C41.2833 40.9468 42.5956 40.4032 43.5632 39.4356C44.5309 38.468 45.0745 37.1557 45.0745 35.7873H43.0106Z" fill="#361081"/>
<path d="M6.89362 11.0212L25.4681 29.5957L44.0425 11.0212" stroke="#361081" stroke-linecap="round" stroke-linejoin="round"/>
</svg>
