<svg width="53" height="53" viewBox="0 0 53 53" fill="none" xmlns="http://www.w3.org/2000/svg">
<g clip-path="url(#clip0_26_2050)">
<path d="M40.9992 10.4086C41.5255 8.88402 41.7172 7.26394 41.5614 5.65858C41.4056 4.05322 40.9059 2.50025 40.0963 1.10529C40.0256 0.982851 39.9239 0.881158 39.8015 0.810408C39.6791 0.739658 39.5403 0.702339 39.3989 0.702194C37.5773 0.697022 35.7817 1.13457 34.1667 1.97719C32.5517 2.8198 31.1656 4.04224 30.1278 5.5393H24.4845C23.4467 4.04224 22.0606 2.8198 20.4456 1.97719C18.8306 1.13457 17.035 0.697022 15.2134 0.702194C15.072 0.702339 14.9332 0.739658 14.8108 0.810408C14.6884 0.881158 14.5867 0.982851 14.5161 1.10529C13.7064 2.50025 13.2067 4.05322 13.0509 5.65858C12.8951 7.26394 13.0868 8.88402 13.6131 10.4086C12.5686 12.0952 12.0067 14.0359 11.9887 16.0197V17.632C11.9919 20.4106 13.0971 23.0745 15.0618 25.0393C17.0266 27.004 19.6905 28.1092 22.4691 28.1124H22.7532C21.9102 28.7918 21.23 29.6513 20.7623 30.6278C20.2946 31.6042 20.0514 32.673 20.0505 33.7557V36.1743H14.4072C12.9105 36.1743 11.4751 35.5797 10.4168 34.5214C9.3585 33.4631 8.76394 32.0277 8.76394 30.531C8.76394 28.6067 7.99951 26.7612 6.63881 25.4005C5.27811 24.0398 3.4326 23.2753 1.50829 23.2753C1.29447 23.2753 1.08942 23.3603 0.938228 23.5115C0.78704 23.6626 0.702103 23.8677 0.702103 24.0815C0.702103 24.2953 0.78704 24.5004 0.938228 24.6516C1.08942 24.8028 1.29447 24.8877 1.50829 24.8877C3.00498 24.8877 4.44037 25.4823 5.49869 26.5406C6.55701 27.5989 7.15157 29.0343 7.15157 30.531C7.15157 32.4553 7.916 34.3008 9.2767 35.6615C10.6374 37.0222 12.4829 37.7866 14.4072 37.7866H20.0505V41.8176C20.0505 42.0314 20.1354 42.2364 20.2866 42.3876C20.4378 42.5388 20.6429 42.6237 20.8567 42.6237C21.0705 42.6237 21.2756 42.5388 21.4268 42.3876C21.5779 42.2364 21.6629 42.0314 21.6629 41.8176V33.7557C21.6629 32.259 22.2574 30.8236 23.3158 29.7653C24.3741 28.707 25.8095 28.1124 27.3062 28.1124C28.8029 28.1124 30.2382 28.707 31.2966 29.7653C32.3549 30.8236 32.9494 32.259 32.9494 33.7557V41.8176C32.9494 42.0314 33.0344 42.2364 33.1856 42.3876C33.3368 42.5388 33.5418 42.6237 33.7556 42.6237C33.9694 42.6237 34.1745 42.5388 34.3257 42.3876C34.4769 42.2364 34.5618 42.0314 34.5618 41.8176V33.7557C34.5609 32.673 34.3177 31.6042 33.85 30.6278C33.3824 29.6513 32.7021 28.7918 31.8591 28.1124H32.1433C34.9219 28.1092 37.5857 27.004 39.5505 25.0393C41.5152 23.0745 42.6204 20.4106 42.6236 17.632V16.0197C42.6056 14.0359 42.0438 12.0952 40.9992 10.4086ZM41.0113 17.632C41.0086 19.9832 40.0735 22.2372 38.411 23.8997C36.7485 25.5622 34.4944 26.4974 32.1433 26.5001H22.4691C20.1179 26.4974 17.8639 25.5622 16.2014 23.8997C14.5389 22.2372 13.6037 19.9832 13.601 17.632V16.0197C13.6219 14.2323 14.1618 12.4894 15.155 11.0032C15.2369 10.8938 15.2897 10.7654 15.3084 10.63C15.3271 10.4947 15.311 10.3567 15.2618 10.2293C14.769 8.95711 14.5519 7.59483 14.6249 6.23252C14.6978 4.8702 15.0592 3.5389 15.685 2.32665C17.229 2.39831 18.7331 2.84042 20.0703 3.61566C21.4075 4.3909 22.5386 5.47651 23.368 6.78082C23.441 6.89464 23.5415 6.98826 23.6602 7.05306C23.7788 7.11787 23.9119 7.15178 24.0472 7.15166H30.5652C30.7004 7.15178 30.8335 7.11787 30.9522 7.05306C31.0709 6.98826 31.1713 6.89464 31.2444 6.78082C32.0737 5.47651 33.2048 4.3909 34.542 3.61566C35.8792 2.84042 37.3833 2.39831 38.9273 2.32665C39.5531 3.5389 39.9145 4.8702 39.9875 6.23252C40.0604 7.59483 39.8433 8.95711 39.3505 10.2293C39.3017 10.3565 39.2858 10.494 39.3045 10.629C39.3232 10.764 39.3758 10.892 39.4574 11.0012C40.45 12.4885 40.9897 14.2317 41.0113 16.0197V17.632Z" fill="#361081"/>
</g>
<defs>
<clipPath id="clip0_26_2050">
<rect width="51.5957" height="51.5957" fill="white" transform="translate(0.702103 0.702148)"/>
</clipPath>
</defs>
</svg>
