<svg width="63" height="62" viewBox="0 0 63 62" fill="none" xmlns="http://www.w3.org/2000/svg">
<path d="M21.7996 18.359C23.3383 18.359 24.5858 17.1116 24.5858 15.5728C24.5858 14.034 23.3383 12.7866 21.7996 12.7866C20.2608 12.7866 19.0134 14.034 19.0134 15.5728C19.0134 17.1116 20.2608 18.359 21.7996 18.359Z" fill="#361081"/>
<path d="M20.9771 21.8773V41.1999M43.5115 41.1999V28.8041C43.5081 26.8141 42.7161 24.9066 41.309 23.4994C39.9018 22.0923 37.9943 21.3003 36.0043 21.2969C34.0121 21.2969 32.1013 22.0874 30.6914 23.4949C29.2815 24.9024 28.4877 26.8118 28.4843 28.8041M28.4843 28.8041V41.1999M28.4843 28.8041V21.8773" stroke="#361081" stroke-linecap="round" stroke-linejoin="round"/>
</svg>
