<svg width="53" height="53" viewBox="0 0 53 53" fill="none" xmlns="http://www.w3.org/2000/svg">
<path d="M38.1473 30.6156L31.6978 27.3909C31.5709 27.3276 31.4295 27.299 31.288 27.3078C31.1464 27.3167 31.0097 27.3627 30.8917 27.4413L27.5379 29.6784C25.6944 28.7943 24.2077 27.3076 23.3236 25.4641L25.5608 22.1104C25.6393 21.9923 25.6854 21.8556 25.6942 21.7141C25.7031 21.5725 25.6744 21.4311 25.6112 21.3042L22.3864 14.8547C22.3195 14.7201 22.2163 14.6069 22.0885 14.5278C21.9606 14.4487 21.8132 14.407 21.6629 14.4073C19.7386 14.4073 17.8931 15.1717 16.5324 16.5324C15.1717 17.8931 14.4072 19.7386 14.4072 21.6629C14.412 26.1516 16.1972 30.4549 19.3712 33.6289C22.5451 36.8028 26.8485 38.588 31.3371 38.5928C33.2614 38.5928 35.1069 37.8284 36.4676 36.4677C37.8283 35.107 38.5927 33.2615 38.5927 31.3372C38.5928 31.1874 38.5512 31.0405 38.4725 30.9131C38.3939 30.7856 38.2813 30.6826 38.1473 30.6156ZM31.3371 36.9804C27.2759 36.9762 23.3824 35.361 20.5107 32.4893C17.639 29.6177 16.0239 25.7241 16.0196 21.6629C16.0194 20.2505 16.5488 18.8894 17.5033 17.8483C18.4578 16.8072 19.768 16.1619 21.1751 16.0398L23.9565 21.6045L21.7395 24.9381C21.6656 25.0481 21.6199 25.1746 21.6066 25.3064C21.5932 25.4382 21.6126 25.5713 21.6629 25.6939C22.734 28.2403 24.7597 30.266 27.3062 31.3372C27.4288 31.3881 27.5622 31.408 27.6944 31.395C27.8266 31.382 27.9536 31.3365 28.064 31.2626L31.3975 29.0456L36.9622 31.8269C36.8396 33.234 36.1939 34.544 35.1524 35.4982C34.1109 36.4523 32.7495 36.9812 31.3371 36.9804ZM26.5 6.34546C22.9912 6.34481 19.5431 7.26017 16.4967 9.00101C13.4502 10.7418 10.9111 13.2478 9.13029 16.2711C7.34952 19.2944 6.38886 22.7301 6.34334 26.2386C6.29782 29.747 7.16902 33.2066 8.87076 36.275L6.47236 43.4682C6.33025 43.8943 6.30963 44.3516 6.4128 44.7888C6.51598 45.226 6.73888 45.6259 7.05652 45.9435C7.37416 46.2611 7.77399 46.484 8.21119 46.5872C8.64839 46.6904 9.10569 46.6698 9.53183 46.5277L16.725 44.1293C19.4157 45.6202 22.4121 46.4754 25.4844 46.6294C28.5567 46.7833 31.6235 46.232 34.4499 45.0176C37.2762 43.8032 39.787 41.9579 41.79 39.6231C43.793 37.2884 45.2349 34.5261 46.0054 31.548C46.7759 28.5699 46.8544 25.4549 46.235 22.4417C45.6156 19.4285 44.3146 16.5971 42.4318 14.1644C40.549 11.7317 38.1344 9.76226 35.3728 8.40696C32.6113 7.05167 29.5762 6.34649 26.5 6.34546ZM26.5 45.0423C23.2399 45.0433 20.0372 44.1847 17.2148 42.5532C17.0921 42.4826 16.9532 42.4451 16.8117 42.4443C16.7246 42.4445 16.6382 42.4588 16.5557 42.4867L9.02192 44.9979C8.87987 45.0453 8.72744 45.0522 8.58171 45.0178C8.43597 44.9834 8.3027 44.9091 8.19682 44.8032C8.09094 44.6973 8.01664 44.5641 7.98224 44.4183C7.94785 44.2726 7.95473 44.1202 8.0021 43.9781L10.5134 36.4443C10.5496 36.336 10.5624 36.2213 10.5509 36.1076C10.5395 35.994 10.504 35.8841 10.4468 35.7853C8.40258 32.2517 7.58158 28.1422 8.11123 24.0943C8.64088 20.0465 10.4916 16.2866 13.3762 13.3979C16.2608 10.5093 20.0181 8.65329 24.0652 8.11795C28.1123 7.58261 32.2229 8.39783 35.7594 10.4371C39.2959 12.4764 42.0605 15.6258 43.6244 19.3967C45.1883 23.1676 45.464 27.3492 44.4088 31.2928C43.3536 35.2364 41.0265 38.7216 37.7884 41.2076C34.5503 43.6936 30.5823 45.0416 26.5 45.0423Z" fill="#361081"/>
</svg>
