<svg width="37" height="37" viewBox="0 0 37 37" fill="none" xmlns="http://www.w3.org/2000/svg">
<path d="M18.5 31.08C11.544 31.08 5.92001 25.456 5.92001 18.5C5.92001 11.544 11.544 5.91998 18.5 5.91998C25.456 5.91998 31.08 11.544 31.08 18.5C31.08 25.456 25.456 31.08 18.5 31.08ZM18.5 7.39998C12.358 7.39998 7.40001 12.358 7.40001 18.5C7.40001 24.642 12.358 29.6 18.5 29.6C24.642 29.6 29.6 24.642 29.6 18.5C29.6 12.358 24.642 7.39998 18.5 7.39998Z" fill="#550CE8"/>
<path d="M11.84 17.76H25.16V19.24H11.84V17.76Z" fill="#550CE8"/>
<path d="M17.76 11.84H19.24V25.16H17.76V11.84Z" fill="#550CE8"/>
</svg>
