<svg width="61" height="61" viewBox="0 0 61 61" fill="none" xmlns="http://www.w3.org/2000/svg">
<path d="M44.0128 23.2369C45.6951 22.3698 47.0374 20.9627 47.8242 19.2413C48.611 17.52 48.7966 15.5842 48.3513 13.7447C47.9061 11.9051 46.8557 10.2685 45.3688 9.09753C43.8819 7.92652 42.0447 7.28901 40.152 7.28731H23.2642C21.3716 7.28901 19.5344 7.92652 18.0475 9.09753C16.5606 10.2685 15.5102 11.9051 15.0649 13.7447C14.6196 15.5842 14.8053 17.52 15.5921 19.2413C16.3788 20.9627 17.7211 22.3698 19.4035 23.2369C17.9943 23.963 16.8179 25.0712 16.0091 26.4346C15.2002 27.798 14.7915 29.3615 14.8296 30.9463C14.8678 32.5311 15.3514 34.0732 16.2249 35.3961C17.0985 36.7189 18.3268 37.7691 19.7694 38.4266C18.3068 39.2107 17.0783 40.3688 16.2093 41.7826C15.3403 43.1965 14.8619 44.8155 14.8229 46.4746C14.7839 48.1337 15.1856 49.7735 15.9871 51.2267C16.7887 52.6798 17.9613 53.8944 19.3854 54.7464C20.8095 55.5985 22.4342 56.0576 24.0936 56.0768C25.7531 56.096 27.3879 55.6748 28.8314 54.856C30.2749 54.0372 31.4754 52.8501 32.3104 51.416C33.1454 49.9818 33.5851 48.3518 33.5845 46.6922V36.0412C34.3726 37.0229 35.3702 37.816 36.5044 38.3625C37.6386 38.9089 38.8806 39.1948 40.1395 39.1993C41.3984 39.2038 42.6424 38.9267 43.7804 38.3883C44.9184 37.8499 45.9217 37.0639 46.7167 36.0877C47.5117 35.1116 48.0784 33.97 48.3752 32.7466C48.6721 31.5232 48.6916 30.2488 48.4324 29.0169C48.1732 27.7849 47.6418 26.6265 46.8771 25.6264C46.1124 24.6263 45.1337 23.8099 44.0128 23.2369ZM46.7195 15.7312C46.7195 17.473 46.0276 19.1435 44.7959 20.3751C43.5643 21.6068 41.8938 22.2987 40.152 22.2987H33.5845V9.16373H40.152C41.8938 9.16373 43.5643 9.85566 44.7959 11.0873C46.0276 12.3189 46.7195 13.9894 46.7195 15.7312ZM33.5845 24.1751H34.8535C34.3871 24.5523 33.9618 24.9777 33.5845 25.4441V24.1751ZM16.6967 15.7312C16.6967 13.9894 17.3887 12.3189 18.6203 11.0873C19.8519 9.85566 21.5224 9.16373 23.2642 9.16373H31.7081V22.2987H23.2642C21.5224 22.2987 19.8519 21.6068 18.6203 20.3751C17.3887 19.1435 16.6967 17.473 16.6967 15.7312ZM31.7081 46.6922C31.7081 48.1767 31.2679 49.6278 30.4432 50.8621C29.6185 52.0965 28.4462 53.0585 27.0747 53.6266C25.7032 54.1947 24.1941 54.3433 22.7381 54.0537C21.2822 53.7641 19.9448 53.0492 18.8951 51.9995C17.8454 50.9498 17.1306 49.6125 16.841 48.1565C16.5513 46.7005 16.7 45.1914 17.2681 43.8199C17.8362 42.4484 18.7982 41.2762 20.0325 40.4515C21.2668 39.6267 22.7179 39.1865 24.2024 39.1865H31.7081V46.6922ZM31.7081 37.3101H23.2642C21.5224 37.3101 19.8519 36.6182 18.6203 35.3865C17.3887 34.1549 16.6967 32.4844 16.6967 30.7426C16.6967 29.0008 17.3887 27.3303 18.6203 26.0987C19.8519 24.8671 21.5224 24.1751 23.2642 24.1751H31.7081V37.3101ZM40.152 37.3101C38.8531 37.3101 37.5833 36.9249 36.5033 36.2033C35.4233 35.4816 34.5815 34.4559 34.0845 33.2559C33.5874 32.0558 33.4573 30.7353 33.7107 29.4614C33.9641 28.1874 34.5896 27.0172 35.5081 26.0987C36.4266 25.1802 37.5968 24.5547 38.8708 24.3013C40.1447 24.0479 41.4652 24.178 42.6653 24.675C43.8653 25.1721 44.891 26.0139 45.6127 27.0939C46.3343 28.1739 46.7195 29.4437 46.7195 30.7426C46.7195 32.4844 46.0276 34.1549 44.7959 35.3865C43.5643 36.6182 41.8938 37.3101 40.152 37.3101Z" fill="#361081"/>
</svg>
