<svg width="61" height="61" viewBox="0 0 61 61" fill="none" xmlns="http://www.w3.org/2000/svg">
<path d="M7.43204 27.2149L21.893 12.7289L26.1212 16.9822C25.5208 19.1088 26.4965 21.4355 28.448 22.5614V36.4219C26.9469 37.2726 25.9461 38.8988 25.9461 40.7502C25.9461 42.0773 26.4733 43.35 27.4117 44.2884C28.3501 45.2268 29.6228 45.754 30.9499 45.754C32.277 45.754 33.5497 45.2268 34.4881 44.2884C35.4265 43.35 35.9537 42.0773 35.9537 40.7502C35.9537 38.8988 34.9529 37.2726 33.4518 36.4219V24.2627L38.6307 29.4917C38.4556 29.8669 38.4556 30.2923 38.4556 30.7426C38.4556 32.0697 38.9828 33.3424 39.9212 34.2808C40.8596 35.2192 42.1323 35.7464 43.4594 35.7464C44.7865 35.7464 46.0592 35.2192 46.9976 34.2808C47.936 33.3424 48.4632 32.0697 48.4632 30.7426C48.4632 29.4155 47.936 28.1428 46.9976 27.2044C46.0592 26.266 44.7865 25.7388 43.4594 25.7388C43.009 25.7388 42.5837 25.7388 42.2084 25.9139L35.7786 19.4841C36.0892 18.3253 35.9688 17.0931 35.4396 16.0164C34.9105 14.9397 34.0086 14.0916 32.9014 13.6296C31.8256 13.2293 30.6997 13.1292 29.6989 13.4044L25.4457 9.17624L27.4222 7.22476C29.3737 5.24826 32.5261 5.24826 34.4776 7.22476L54.4677 27.2149C56.4442 29.1664 56.4442 32.3188 54.4677 34.2703L34.4776 54.2604C32.5261 56.2369 29.3737 56.2369 27.4222 54.2604L7.43204 34.2703C5.45554 32.3188 5.45554 29.1664 7.43204 27.2149Z" fill="#361081"/>
</svg>
