<svg width="61" height="61" viewBox="0 0 61 61" fill="none" xmlns="http://www.w3.org/2000/svg">
<path d="M50.1979 20.503L37.063 7.36809C36.9758 7.28099 36.8723 7.21192 36.7584 7.16483C36.6445 7.11775 36.5224 7.09356 36.3992 7.09366H13.8821C13.1356 7.09366 12.4197 7.3902 11.8919 7.91805C11.364 8.44589 11.0675 9.16181 11.0675 9.90829V26.7961C11.0675 27.0449 11.1663 27.2836 11.3423 27.4595C11.5182 27.6355 11.7569 27.7343 12.0057 27.7343C12.2545 27.7343 12.4932 27.6355 12.6691 27.4595C12.845 27.2836 12.9439 27.0449 12.9439 26.7961V9.90829C12.9439 9.65946 13.0427 9.42083 13.2187 9.24488C13.3946 9.06893 13.6333 8.97008 13.8821 8.97008H35.461V21.1668C35.461 21.4157 35.5598 21.6543 35.7358 21.8303C35.9117 22.0062 36.1504 22.105 36.3992 22.105H48.5959V51.1896C48.5959 51.4384 48.4971 51.6771 48.3212 51.853C48.1452 52.029 47.9066 52.1278 47.6577 52.1278H42.0285C41.7796 52.1278 41.541 52.2267 41.365 52.4026C41.1891 52.5786 41.0903 52.8172 41.0903 53.066C41.0903 53.3149 41.1891 53.5535 41.365 53.7295C41.541 53.9054 41.7796 54.0042 42.0285 54.0042H47.6577C48.4042 54.0042 49.1201 53.7077 49.648 53.1799C50.1758 52.652 50.4724 51.9361 50.4724 51.1896V21.1668C50.4725 21.0436 50.4483 20.9215 50.4012 20.8076C50.3541 20.6937 50.285 20.5902 50.1979 20.503ZM37.3374 10.2953L47.2684 20.2286H37.3374V10.2953ZM34.4852 46.4516C34.4267 47.0351 34.2401 47.5985 33.9389 48.1016C33.6377 48.6048 33.2292 49.0353 32.7425 49.3624C31.7128 50.045 30.397 50.2467 29.1726 50.2467C28.0493 50.2385 26.9314 50.0912 25.8443 49.8081C25.613 49.7342 25.4194 49.5735 25.3041 49.3598C25.1888 49.146 25.1609 48.896 25.2262 48.6621C25.2915 48.4282 25.445 48.2288 25.6543 48.1057C25.8636 47.9826 26.1125 47.9454 26.3486 48.002C27.3384 48.2765 30.2328 48.7737 31.7034 47.7956C31.966 47.6182 32.1849 47.3835 32.3438 47.1093C32.5026 46.8351 32.5972 46.5284 32.6205 46.2124C32.8152 44.6995 31.5932 44.1741 28.9521 43.4118C26.6817 42.7551 23.8576 41.9388 24.2282 39.0093C24.285 38.44 24.4661 37.8901 24.7587 37.3985C25.0514 36.9069 25.4484 36.4855 25.9217 36.1642C26.9913 35.4441 28.5018 35.1415 30.4017 35.2682C31.2304 35.3228 32.0529 35.4492 32.8598 35.6458C33.1005 35.7096 33.3061 35.8663 33.4312 36.0817C33.5564 36.297 33.5909 36.5532 33.5271 36.7939C33.4633 37.0347 33.3065 37.2402 33.0912 37.3654C32.8759 37.4905 32.6197 37.525 32.379 37.4612C31.3727 37.1962 28.4361 36.7294 26.9702 37.7216C26.7171 37.8913 26.5062 38.1168 26.3538 38.3807C26.2013 38.6445 26.1113 38.9398 26.0906 39.2438C25.9358 40.4565 27.003 40.8857 29.4728 41.6081C31.7691 42.2766 34.9074 43.1773 34.4852 46.4516ZM18.5732 36.1782V45.0912C18.5732 46.4598 18.0295 47.7723 17.0618 48.74C16.0941 49.7077 14.7816 50.2514 13.413 50.2514C12.0444 50.2514 10.7319 49.7077 9.76422 48.74C8.7965 47.7723 8.25284 46.4598 8.25284 45.0912C8.25284 44.8424 8.35169 44.6038 8.52763 44.4278C8.70358 44.2519 8.94222 44.153 9.19105 44.153C9.43988 44.153 9.67852 44.2519 9.85447 44.4278C10.0304 44.6038 10.1293 44.8424 10.1293 45.0912C10.1293 45.9621 10.4752 46.7974 11.091 47.4132C11.7069 48.029 12.5421 48.375 13.413 48.375C14.2839 48.375 15.1191 48.029 15.735 47.4132C16.3508 46.7974 16.6967 45.9621 16.6967 45.0912V36.1782C16.6967 35.9294 16.7956 35.6908 16.9715 35.5148C17.1475 35.3389 17.3861 35.24 17.635 35.24C17.8838 35.24 18.1224 35.3389 18.2984 35.5148C18.4743 35.6908 18.5732 35.9294 18.5732 36.1782Z" fill="#361081"/>
</svg>
