<svg width="61" height="61" viewBox="0 0 61 61" fill="none" xmlns="http://www.w3.org/2000/svg">
<path fill-rule="evenodd" clip-rule="evenodd" d="M32.6535 47.0734C32.6535 47.9963 33.4018 48.7445 34.3247 48.7445C35.2477 48.7445 35.9959 47.9963 35.9959 47.0734C35.9959 46.1504 35.2477 45.4022 34.3247 45.4022C33.4018 45.4022 32.6535 46.1504 32.6535 47.0734ZM24.2683 14.4119C24.2683 15.3348 25.0165 16.083 25.9395 16.083C26.8624 16.083 27.6107 15.3348 27.6107 14.4119C27.6107 13.4889 26.8624 12.7407 25.9395 12.7407C25.0165 12.7407 24.2683 13.4889 24.2683 14.4119Z" fill="#361081"/>
<path fill-rule="evenodd" clip-rule="evenodd" d="M48.2821 18.1772H42.6975V12.5927C42.6975 9.66632 40.3184 7.28731 37.3921 7.28731H22.8721C19.9458 7.28731 17.5668 9.66632 17.5668 12.5927V18.1772H11.9822C9.05583 18.1772 6.67682 20.5563 6.67682 23.4826V38.0026C6.67682 40.9289 9.05583 43.308 11.9822 43.308H17.5668V48.8925C17.5668 51.8189 19.9458 54.1979 22.8721 54.1979H37.3921C40.3184 54.1979 42.6975 51.8189 42.6975 48.8925V43.308H48.2821C51.2084 43.308 53.5874 40.9289 53.5874 38.0026V23.4826C53.5874 20.5563 51.2084 18.1772 48.2821 18.1772ZM11.9822 39.9572C10.9044 39.9572 10.0276 39.0804 10.0276 38.0026V23.4826C10.0276 22.4048 10.9043 21.528 11.9822 21.528H28.3171C29.2442 21.528 29.9925 20.7797 29.9925 19.8527C29.9925 18.9256 29.2442 18.1772 28.3171 18.1772H20.9176V12.5927C20.9176 11.5149 21.7943 10.6381 22.8721 10.6381H37.3921C38.4699 10.6381 39.3467 11.5148 39.3467 12.5927V27.632C39.3467 28.425 38.7044 29.0672 37.9115 29.0672H22.3528C19.7113 29.0672 17.5668 31.2173 17.5668 33.8532V39.9572H11.9822ZM50.2366 38.0026C50.2366 39.0804 49.3599 39.9572 48.2821 39.9572H31.9471C31.02 39.9572 30.2717 40.7055 30.2717 41.6325C30.2717 42.5596 31.0201 43.308 31.9471 43.308H39.3466V48.8925C39.3466 49.9703 38.4699 50.8471 37.3921 50.8471H22.8721C21.7943 50.8471 20.9175 49.9704 20.9175 48.8925V33.8532C20.9175 33.0602 21.5598 32.418 22.3528 32.418H37.9115C40.5529 32.418 42.6975 30.2679 42.6975 27.632V21.528H48.2821C49.3598 21.528 50.2366 22.4048 50.2366 23.4826V38.0026Z" fill="#361081"/>
</svg>
