<svg width="52" height="51" viewBox="0 0 52 51" fill="none" xmlns="http://www.w3.org/2000/svg">
<path d="M46.0342 37.7789C43.1395 39.7503 39.0539 39.7503 30.8877 39.7503H20.9251C12.7589 39.7503 8.67332 39.7503 5.77863 37.7789C4.70739 37.0486 3.77605 36.1429 3.02654 35.1027C1 32.2908 1 28.3189 1 20.3751C1 12.4313 1 8.46185 3.02654 5.64761C3.77711 4.6062 4.70781 3.70041 5.77863 2.97142C8.67332 1 12.7589 1 20.9251 1M26.019 39.7503V49.4378M16.0114 49.4378H36.0266" stroke="#361081" stroke-width="1.5" stroke-linecap="round" stroke-linejoin="round"/>
<path d="M39.7794 24.008H39.802M41.0304 0.999992C45.749 0.999992 48.1058 0.999992 49.5719 2.41922C51.038 3.83845 51.038 6.11987 51.038 10.6876V20.3751C51.038 24.9428 51.038 27.2242 49.5719 28.6435C48.1058 30.0627 45.749 30.0627 41.0304 30.0627H38.5285C33.8099 30.0627 31.4531 30.0627 29.987 28.6435C28.5209 27.2242 28.5209 24.9428 28.5209 20.3751V10.6876C28.5209 6.11987 28.5209 3.83845 29.987 2.41922C31.4531 0.999992 33.8099 0.999992 38.5285 0.999992H41.0304Z" stroke="#361081" stroke-width="1.5" stroke-linecap="round" stroke-linejoin="round"/>
</svg>
