<svg width="25" height="25" viewBox="0 0 25 25" fill="none" xmlns="http://www.w3.org/2000/svg">
<path d="M20.5889 8.31738L15.1201 2.84863C15.0838 2.81237 15.0407 2.78361 14.9933 2.76401C14.9459 2.7444 14.8951 2.73433 14.8438 2.73438H5.46875C5.15795 2.73438 4.85988 2.85784 4.64011 3.07761C4.42034 3.29738 4.29688 3.59545 4.29688 3.90625V10.9375C4.29688 11.0411 4.33803 11.1405 4.41129 11.2137C4.48454 11.287 4.5839 11.3281 4.6875 11.3281C4.7911 11.3281 4.89046 11.287 4.96371 11.2137C5.03697 11.1405 5.07812 11.0411 5.07812 10.9375V3.90625C5.07812 3.80265 5.11928 3.70329 5.19254 3.63004C5.26579 3.55678 5.36515 3.51563 5.46875 3.51563H14.4531V8.59375C14.4531 8.69735 14.4943 8.79671 14.5675 8.86996C14.6408 8.94322 14.7401 8.98438 14.8438 8.98438H19.9219V21.0938C19.9219 21.1973 19.8807 21.2967 19.8075 21.37C19.7342 21.4432 19.6348 21.4844 19.5312 21.4844H17.1875C17.0839 21.4844 16.9845 21.5255 16.9113 21.5988C16.838 21.672 16.7969 21.7714 16.7969 21.875C16.7969 21.9786 16.838 22.078 16.9113 22.1512C16.9845 22.2245 17.0839 22.2656 17.1875 22.2656H19.5312C19.8421 22.2656 20.1401 22.1422 20.3599 21.9224C20.5797 21.7026 20.7031 21.4046 20.7031 21.0938V8.59375C20.7032 8.54244 20.6931 8.49162 20.6735 8.4442C20.6539 8.39678 20.6251 8.35369 20.5889 8.31738ZM15.2344 4.06738L19.3691 8.20312H15.2344V4.06738ZM14.0469 19.1211C14.0225 19.364 13.9448 19.5986 13.8194 19.8081C13.694 20.0175 13.5239 20.1968 13.3213 20.333C12.8926 20.6172 12.3447 20.7012 11.835 20.7012C11.3673 20.6977 10.9018 20.6364 10.4492 20.5186C10.3529 20.4878 10.2723 20.4209 10.2243 20.3319C10.1763 20.2429 10.1647 20.1388 10.1919 20.0414C10.2191 19.944 10.2829 19.861 10.3701 19.8097C10.4572 19.7585 10.5609 19.743 10.6592 19.7666C11.0713 19.8809 12.2764 20.0879 12.8887 19.6807C12.998 19.6068 13.0891 19.5091 13.1553 19.3949C13.2214 19.2807 13.2608 19.1531 13.2705 19.0215C13.3516 18.3916 12.8428 18.1729 11.7432 17.8555C10.7979 17.582 9.62207 17.2422 9.77637 16.0225C9.80001 15.7854 9.87541 15.5565 9.99724 15.3518C10.1191 15.1471 10.2844 14.9717 10.4814 14.8379C10.9268 14.5381 11.5557 14.4121 12.3467 14.4648C12.6917 14.4876 13.0342 14.5402 13.3701 14.6221C13.4704 14.6486 13.5559 14.7139 13.608 14.8035C13.6601 14.8932 13.6745 14.9999 13.6479 15.1001C13.6214 15.2003 13.5561 15.2859 13.4665 15.338C13.3768 15.3901 13.2702 15.4045 13.1699 15.3779C12.751 15.2676 11.5283 15.0732 10.918 15.4863C10.8126 15.557 10.7248 15.6509 10.6613 15.7607C10.5978 15.8706 10.5604 15.9935 10.5518 16.1201C10.4873 16.625 10.9316 16.8037 11.96 17.1045C12.916 17.3828 14.2227 17.7578 14.0469 19.1211ZM7.42188 14.8438V18.5547C7.42188 19.1245 7.19552 19.671 6.79261 20.0739C6.3897 20.4768 5.84324 20.7031 5.27344 20.7031C4.70364 20.7031 4.15717 20.4768 3.75426 20.0739C3.35135 19.671 3.125 19.1245 3.125 18.5547C3.125 18.4511 3.16616 18.3517 3.23941 18.2785C3.31267 18.2052 3.41202 18.1641 3.51562 18.1641C3.61923 18.1641 3.71858 18.2052 3.79184 18.2785C3.86509 18.3517 3.90625 18.4511 3.90625 18.5547C3.90625 18.9173 4.05029 19.265 4.30669 19.5214C4.56309 19.7778 4.91084 19.9219 5.27344 19.9219C5.63604 19.9219 5.98379 19.7778 6.24019 19.5214C6.49658 19.265 6.64062 18.9173 6.64062 18.5547V14.8438C6.64062 14.7401 6.68178 14.6408 6.75504 14.5675C6.82829 14.4943 6.92765 14.4531 7.03125 14.4531C7.13485 14.4531 7.23421 14.4943 7.30746 14.5675C7.38072 14.6408 7.42188 14.7401 7.42188 14.8438Z" fill="#646358"/>
</svg>
